<svg width="22" height="23" viewBox="0 0 22 23" fill="none" xmlns="http://www.w3.org/2000/svg">
<path d="M20.68 15.4417L13.6492 3.78167C13.3649 3.33692 12.9732 2.9709 12.5102 2.71736C12.0472 2.46383 11.5279 2.33093 11 2.33093C10.4722 2.33093 9.9528 2.46383 9.48982 2.71736C9.02684 2.9709 8.63514 3.33692 8.35084 3.78167L1.32001 15.4417C1.07164 15.8557 0.93665 16.3278 0.928605 16.8105C0.920559 17.2933 1.03974 17.7696 1.27418 18.1917C1.54522 18.6667 1.93753 19.0613 2.41103 19.3351C2.88453 19.6089 3.42223 19.7521 3.96918 19.75H18.0308C18.5742 19.7558 19.1095 19.6182 19.5826 19.351C20.0558 19.0838 20.4501 18.6966 20.7258 18.2283C20.9672 17.8019 21.0902 17.3187 21.0821 16.8288C21.074 16.3388 20.9352 15.86 20.68 15.4417ZM11 16.0833C10.8187 16.0833 10.6415 16.0296 10.4907 15.9289C10.34 15.8281 10.2225 15.685 10.1531 15.5175C10.0837 15.35 10.0656 15.1657 10.101 14.9878C10.1363 14.81 10.2236 14.6467 10.3518 14.5185C10.48 14.3903 10.6434 14.303 10.8212 14.2676C10.999 14.2322 11.1833 14.2504 11.3508 14.3198C11.5183 14.3892 11.6615 14.5067 11.7622 14.6574C11.8629 14.8081 11.9167 14.9854 11.9167 15.1667C11.9167 15.4098 11.8201 15.6429 11.6482 15.8149C11.4763 15.9868 11.2431 16.0833 11 16.0833ZM11.9167 12.4167C11.9167 12.6598 11.8201 12.8929 11.6482 13.0649C11.4763 13.2368 11.2431 13.3333 11 13.3333C10.7569 13.3333 10.5237 13.2368 10.3518 13.0649C10.1799 12.8929 10.0833 12.6598 10.0833 12.4167V8.75C10.0833 8.50689 10.1799 8.27373 10.3518 8.10182C10.5237 7.92991 10.7569 7.83334 11 7.83334C11.2431 7.83334 11.4763 7.92991 11.6482 8.10182C11.8201 8.27373 11.9167 8.50689 11.9167 8.75V12.4167Z" fill="url(#paint0_linear_1_569)"/>
<defs>
<linearGradient id="paint0_linear_1_569" x1="11.0053" y1="2.33093" x2="11.0053" y2="19.7502" gradientUnits="userSpaceOnUse">
<stop stop-color="#CD0000"/>
<stop offset="1" stop-color="#9E2000"/>
</linearGradient>
</defs>
</svg>
