<svg width="15" height="16" viewBox="0 0 15 16" fill="none" xmlns="http://www.w3.org/2000/svg">
<path d="M9.3728 12.375C9.3728 12.8723 9.17526 13.3492 8.82363 13.7008C8.472 14.0525 7.99508 14.25 7.4978 14.25C7.00052 14.25 6.52361 14.0525 6.17198 13.7008C5.82035 13.3492 5.6228 12.8723 5.6228 12.375C5.6228 11.8777 5.82035 11.4008 6.17198 11.0492C6.52361 10.6975 7.00052 10.5 7.4978 10.5C7.99508 10.5 8.472 10.6975 8.82363 11.0492C9.17526 11.4008 9.3728 11.8777 9.3728 12.375Z" fill="url(#paint0_linear_1_578)"/>
<path d="M7.50001 1.75C4.91126 1.75 2.81251 3.84875 2.81251 6.4375V9.08969L1.93626 11.0756C1.88906 11.1826 1.8693 11.2997 1.87877 11.4163C1.88825 11.5329 1.92665 11.6453 1.99051 11.7433C2.05437 11.8413 2.14167 11.9218 2.24449 11.9775C2.34732 12.0333 2.46242 12.0625 2.57939 12.0625H12.4206C12.5376 12.0625 12.6527 12.0333 12.7555 11.9775C12.8584 11.9218 12.9457 11.8413 13.0095 11.7433C13.0734 11.6453 13.1118 11.5329 13.1212 11.4163C13.1307 11.2997 13.111 11.1826 13.0638 11.0756L12.1875 9.08969V6.4375C12.1875 3.84875 10.0888 1.75 7.50001 1.75Z" fill="url(#paint1_linear_1_578)"/>
<defs>
<linearGradient id="paint0_linear_1_578" x1="7.4978" y1="11.8394" x2="7.50999" y2="14.2497" gradientUnits="userSpaceOnUse">
<stop stop-color="#EB4824"/>
<stop offset="1" stop-color="#FFCD0F" stop-opacity="0.988"/>
</linearGradient>
<linearGradient id="paint1_linear_1_578" x1="11.7147" y1="10.9166" x2="3.19564" y2="3.21875" gradientUnits="userSpaceOnUse">
<stop stop-color="#FF6F47"/>
<stop offset="1" stop-color="#FFCD0F"/>
</linearGradient>
</defs>
</svg>
