<svg width="15" height="16" viewBox="0 0 15 16" fill="none" xmlns="http://www.w3.org/2000/svg">
<path d="M3.12075 8.61501C2.98498 8.61487 2.85286 8.65894 2.74437 8.74057C2.63588 8.82219 2.55692 8.93692 2.51942 9.0674C2.48193 9.19789 2.48794 9.33704 2.53656 9.4638C2.58517 9.59056 2.67374 9.69805 2.78887 9.77001L4.46887 11.45C4.52694 11.508 4.59587 11.5541 4.67172 11.5854C4.74758 11.6168 4.82887 11.633 4.91097 11.6329C4.99306 11.6329 5.07434 11.6167 5.15017 11.5853C5.22601 11.5538 5.2949 11.5078 5.35293 11.4497C5.41096 11.3916 5.45698 11.3227 5.48837 11.2468C5.51976 11.171 5.5359 11.0897 5.53587 11.0076C5.53584 10.9255 5.51964 10.8442 5.4882 10.7684C5.45676 10.6926 5.41069 10.6237 5.35262 10.5656L4.65199 9.86563H9.37075C9.53651 9.86563 9.69548 9.79978 9.81269 9.68257C9.9299 9.56536 9.99575 9.40639 9.99575 9.24063C9.99575 9.07487 9.9299 8.9159 9.81269 8.79869C9.69548 8.68148 9.53651 8.61563 9.37075 8.61563L3.12075 8.61501ZM11.8795 7.38438C12.0153 7.38452 12.1474 7.34044 12.2559 7.25882C12.3644 7.1772 12.4433 7.06247 12.4808 6.93198C12.5183 6.8015 12.5123 6.66235 12.4637 6.53559C12.4151 6.40882 12.3265 6.30133 12.2114 6.22938L10.5314 4.55C10.4141 4.43281 10.2551 4.36701 10.0893 4.36707C9.92348 4.36712 9.7645 4.43304 9.64731 4.55032C9.53012 4.66759 9.46431 4.82662 9.46437 4.99241C9.46443 5.15821 9.53034 5.31719 9.64762 5.43438L10.3482 6.13438H5.6295C5.46373 6.13438 5.30476 6.20023 5.18755 6.31744C5.07034 6.43465 5.0045 6.59362 5.0045 6.75938C5.0045 6.92514 5.07034 7.08411 5.18755 7.20132C5.30476 7.31853 5.46373 7.38438 5.6295 7.38438H11.8795Z" fill="url(#paint0_linear_1_588)"/>
<defs>
<linearGradient id="paint0_linear_1_588" x1="7.50012" y1="4.36707" x2="7.50012" y2="11.6329" gradientUnits="userSpaceOnUse">
<stop stop-color="#0028ED"/>
<stop offset="1" stop-color="#0020C1"/>
</linearGradient>
</defs>
</svg>
