<svg width="18" height="3" viewBox="0 0 18 3" fill="none" xmlns="http://www.w3.org/2000/svg">
<path d="M1.5 3.00024C2.32843 3.00024 3 2.32867 3 1.50024C3 0.671816 2.32843 0.000244141 1.5 0.000244141C0.671573 0.000244141 0 0.671816 0 1.50024C0 2.32867 0.671573 3.00024 1.5 3.00024Z" fill="black"/>
<path d="M9 3.00024C9.82842 3.00024 10.5 2.32867 10.5 1.50024C10.5 0.671816 9.82842 0.000244141 9 0.000244141C8.17157 0.000244141 7.5 0.671816 7.5 1.50024C7.5 2.32867 8.17157 3.00024 9 3.00024Z" fill="black"/>
<path d="M16.5002 3.00024C17.3287 3.00024 18.0002 2.32867 18.0002 1.50024C18.0002 0.671816 17.3287 0.000244141 16.5002 0.000244141C15.6718 0.000244141 15.0002 0.671816 15.0002 1.50024C15.0002 2.32867 15.6718 3.00024 16.5002 3.00024Z" fill="black"/>
</svg>
