<svg width="18" height="18" viewBox="0 0 18 18" fill="none" xmlns="http://www.w3.org/2000/svg">
<path d="M3.75012 14.2498H7.06062L17.2929 4.01756C17.7312 3.57819 17.9773 2.98292 17.9773 2.36231C17.9773 1.7417 17.7312 1.14643 17.2929 0.70706C16.8471 0.280981 16.2542 0.0431976 15.6376 0.0431976C15.021 0.0431976 14.4281 0.280981 13.9824 0.70706L3.75012 10.9393V14.2498ZM5.25012 11.5603L15.0429 1.76756C15.2031 1.61453 15.4161 1.52913 15.6376 1.52913C15.8592 1.52913 16.0722 1.61453 16.2324 1.76756C16.3898 1.92545 16.4783 2.13933 16.4783 2.36231C16.4783 2.58529 16.3898 2.79917 16.2324 2.95706L6.43962 12.7498H5.25012V11.5603Z" fill="#FBFCF8"/>
<path d="M17.7157 5.7165L16.5 6.93225V12H12V16.5H1.5V2.25C1.5 2.05109 1.57902 1.86032 1.71967 1.71967C1.86032 1.57902 2.05109 1.5 2.25 1.5H11.0685L12.2843 0.28425C12.3938 0.182718 12.5092 0.0877996 12.63 0L2.25 0C1.65326 0 1.08097 0.237053 0.65901 0.65901C0.237053 1.08097 0 1.65326 0 2.25L0 18H13.8105L18 13.8105V5.37075C17.912 5.4914 17.8171 5.60684 17.7157 5.7165ZM13.5 16.1895V13.5H16.1895L13.5 16.1895Z" fill="#FBFCF8"/>
</svg>
