<svg width="18" height="18" viewBox="0 0 18 18" fill="none" xmlns="http://www.w3.org/2000/svg">
<path d="M8.25 8.25H0V2.25C0 1.65326 0.237053 1.08097 0.65901 0.65901C1.08097 0.237053 1.65326 0 2.25 0L8.25 0V8.25ZM1.5 6.75H6.75V1.5H2.25C2.05109 1.5 1.86032 1.57902 1.71967 1.71967C1.57902 1.86032 1.5 2.05109 1.5 2.25V6.75Z" fill="#FBFCF8"/>
<path d="M17.9999 8.25H9.74988V0H15.7499C16.3466 0 16.9189 0.237053 17.3409 0.65901C17.7628 1.08097 17.9999 1.65326 17.9999 2.25V8.25ZM11.2499 6.75H16.4999V2.25C16.4999 2.05109 16.4209 1.86032 16.2802 1.71967C16.1395 1.57902 15.9488 1.5 15.7499 1.5H11.2499V6.75Z" fill="#FBFCF8"/>
<path d="M8.25 18H2.25C1.65326 18 1.08097 17.7629 0.65901 17.341C0.237053 16.919 0 16.3467 0 15.75L0 9.74998H8.25V18ZM1.5 11.25V15.75C1.5 15.9489 1.57902 16.1397 1.71967 16.2803C1.86032 16.421 2.05109 16.5 2.25 16.5H6.75V11.25H1.5Z" fill="#FBFCF8"/>
<path d="M15.7499 18H9.74988V9.74998H17.9999V15.75C17.9999 16.3467 17.7628 16.919 17.3409 17.341C16.9189 17.7629 16.3466 18 15.7499 18ZM11.2499 16.5H15.7499C15.9488 16.5 16.1395 16.421 16.2802 16.2803C16.4209 16.1397 16.4999 15.9489 16.4999 15.75V11.25H11.2499V16.5Z" fill="#FBFCF8"/>
</svg>
