<svg width="18" height="19" viewBox="0 0 18 19" fill="none" xmlns="http://www.w3.org/2000/svg">
<path d="M1.5 16.25V2.75C1.5 2.55109 1.57902 2.36032 1.71967 2.21967C1.86032 2.07902 2.05109 2 2.25 2H6V0.5H2.25C1.65326 0.5 1.08097 0.737053 0.65901 1.15901C0.237053 1.58097 0 2.15326 0 2.75L0 16.25C0 16.8467 0.237053 17.419 0.65901 17.841C1.08097 18.2629 1.65326 18.5 2.25 18.5H6V17H2.25C2.05109 17 1.86032 16.921 1.71967 16.7803C1.57902 16.6397 1.5 16.4489 1.5 16.25Z" fill="#FBFCF8"/>
<path d="M17.342 7.9088L13.9025 4.4693L12.842 5.5298L16.04 8.7278L3.74976 8.74955V10.2495L16.082 10.2278L12.8405 13.4693L13.901 14.5298L17.3405 11.0903C17.7625 10.6686 17.9997 10.0965 18 9.49986C18.0003 8.90324 17.7636 8.33094 17.342 7.9088Z" fill="#FBFCF8"/>
</svg>
