<svg width="21" height="32" viewBox="0 0 21 32" fill="none" xmlns="http://www.w3.org/2000/svg">
<path d="M10.4997 1.85718C9.47674 1.85718 8.49566 2.26355 7.77231 2.98691C7.04895 3.71026 6.64258 4.69134 6.64258 5.71431V16C6.64258 17.023 7.04895 18.0041 7.77231 18.7274C8.49566 19.4508 9.47674 19.8571 10.4997 19.8571C11.5227 19.8571 12.5038 19.4508 13.2271 18.7274C13.9505 18.0041 14.3569 17.023 14.3569 16V5.71431C14.3569 4.69134 13.9505 3.71026 13.2271 2.98691C12.5038 2.26355 11.5227 1.85718 10.4997 1.85718Z" fill="black" stroke="black" stroke-width="2.5" stroke-linecap="round" stroke-linejoin="round"/>
<path d="M19.5 13.429V16.0004C19.5 18.3873 18.5518 20.6765 16.864 22.3643C15.1761 24.0522 12.8869 25.0004 10.5 25.0004C8.11305 25.0004 5.82387 24.0522 4.13604 22.3643C2.44821 20.6765 1.5 18.3873 1.5 16.0004V13.429" stroke="black" stroke-width="2.5" stroke-linecap="round" stroke-linejoin="round"/>
<path d="M10.5 24.9998V30.1426" stroke="black" stroke-width="2.5" stroke-linecap="round" stroke-linejoin="round"/>
<path d="M5.35742 30.1428H15.6431" stroke="black" stroke-width="2.5" stroke-linecap="round" stroke-linejoin="round"/>
</svg>
