<svg width="20" height="21" viewBox="0 0 20 21" fill="none" xmlns="http://www.w3.org/2000/svg">
<path d="M10 1.5C5.0293 1.5 1 5.5293 1 10.5C1 15.4707 5.0293 19.5 10 19.5C14.9707 19.5 19 15.4707 19 10.5C19 5.5293 14.9707 1.5 10 1.5Z" stroke="white" stroke-width="1.2" stroke-linecap="round" stroke-linejoin="round"/>
<path d="M3.04395 16.2114C3.04395 16.2114 5.05005 13.65 10 13.65C14.95 13.65 16.957 16.2114 16.957 16.2114M10 10.5C10.7161 10.5 11.4029 10.2155 11.9092 9.70916C12.4156 9.20282 12.7 8.51606 12.7 7.79998C12.7 7.08389 12.4156 6.39714 11.9092 5.89079C11.4029 5.38444 10.7161 5.09998 10 5.09998C9.28396 5.09998 8.5972 5.38444 8.09086 5.89079C7.58451 6.39714 7.30005 7.08389 7.30005 7.79998C7.30005 8.51606 7.58451 9.20282 8.09086 9.70916C8.5972 10.2155 9.28396 10.5 10 10.5Z" stroke="white" stroke-width="1.2" stroke-linecap="round" stroke-linejoin="round"/>
</svg>
