<svg width="17" height="19" viewBox="0 0 17 19" fill="none" xmlns="http://www.w3.org/2000/svg">
<path d="M13.5 6.16823C13.5 4.84215 12.9732 3.57037 12.0355 2.63268C11.0979 1.695 9.82608 1.16821 8.5 1.16821C7.17392 1.16821 5.90215 1.695 4.96447 2.63268C4.02678 3.57037 3.5 4.84215 3.5 6.16823C3.5 12.0016 1 13.6683 1 13.6683H16C16 13.6683 13.5 12.0016 13.5 6.16823Z" stroke="black" stroke-width="1.4" stroke-linecap="round" stroke-linejoin="round"/>
<path d="M9.94168 17.0015C9.79517 17.2541 9.58488 17.4638 9.33187 17.6095C9.07886 17.7552 8.792 17.8319 8.50002 17.8319C8.20803 17.8319 7.92117 17.7552 7.66816 17.6095C7.41515 17.4638 7.20486 17.2541 7.05835 17.0015" stroke="black" stroke-width="1.4" stroke-linecap="round" stroke-linejoin="round"/>
</svg>
