<svg width="25" height="26" viewBox="0 0 25 26" fill="none" xmlns="http://www.w3.org/2000/svg">
<g clip-path="url(#clip0_1_251)">
<path d="M22.3332 12.0104L12.7603 21.5833C11.5876 22.756 9.99696 23.4149 8.33844 23.4149C6.67991 23.4149 5.08932 22.756 3.91656 21.5833C2.74381 20.4105 2.08496 18.8199 2.08496 17.1614C2.08496 15.5029 2.74381 13.9123 3.91656 12.7395L13.4895 3.16662C14.2713 2.38479 15.3317 1.94556 16.4374 1.94556C17.5431 1.94556 18.6035 2.38479 19.3853 3.16662C20.1671 3.94846 20.6064 5.00886 20.6064 6.11454C20.6064 7.22022 20.1671 8.28062 19.3853 9.06246L9.80198 18.6354C9.41106 19.0263 8.88086 19.2459 8.32802 19.2459C7.77518 19.2459 7.24498 19.0263 6.85406 18.6354C6.46314 18.2445 6.24353 17.7143 6.24353 17.1614C6.24353 16.6086 6.46314 16.0784 6.85406 15.6875L15.6978 6.85412" stroke="black" stroke-width="2" stroke-linecap="round" stroke-linejoin="round"/>
</g>
<defs>
<clipPath id="clip0_1_251">
<rect width="25" height="25" fill="white" transform="translate(0 0.5)"/>
</clipPath>
</defs>
</svg>
